<?xml version="1.0" encoding="UTF-8" standalone="no"?>
<!DOCTYPE svg PUBLIC "-//W3C//DTD SVG 1.1//EN" "http://www.w3.org/Graphics/SVG/1.1/DTD/svg11.dtd">
<svg width="100%" height="100%" viewBox="0 0 1600 650" version="1.1" xmlns="http://www.w3.org/2000/svg" xmlns:xlink="http://www.w3.org/1999/xlink" xml:space="preserve" xmlns:serif="http://www.serif.com/" style="fill-rule:evenodd;clip-rule:evenodd;stroke-linejoin:round;stroke-miterlimit:2;">
    <g transform="matrix(1,0,0,0.959432,14.0117,-109.747)">
        <g id="Layer1">
            <g>
                <g transform="matrix(1,0,0,1.04228,331.768,-26.3367)">
                    <g transform="matrix(288,0,0,288,191.549,322.328)">
                        <path d="M0.107,-0.416L0.107,-0.104L0.523,-0.104L0.523,-0L0,-0L0,-0.52L0.523,-0.52L0.523,-0.416L0.107,-0.416Z" style="fill-rule:nonzero;"/>
                    </g>
                    <g transform="matrix(288,0,0,288,375.293,322.328)">
                        <path d="M0.42,-0.417L0.42,-0.001L0,-0.001L0,-0.251L0.313,-0.251L0.313,-0.319L0,-0.319L0,-0.417L0.42,-0.417ZM0.313,-0.094L0.313,-0.166L0.107,-0.166L0.107,-0.094L0.313,-0.094Z" style="fill-rule:nonzero;"/>
                    </g>
                    <g transform="matrix(288,0,0,288,526.205,322.328)">
                        <path d="M0.416,-0L0.103,-0L0.103,0.158L0,0.158L0,-0.417L0.416,-0.417L0.416,-0ZM0.313,-0.313L0.103,-0.313L0.103,-0.104L0.313,-0.104L0.313,-0.313Z" style="fill-rule:nonzero;"/>
                    </g>
                    <g transform="matrix(288,0,0,288,676.829,322.328)">
                        <path d="M0.103,-0.313L0.103,-0.104L0.313,-0.104L0.313,-0L0,-0L0,-0.552L0.103,-0.552L0.103,-0.417L0.313,-0.417L0.313,-0.313L0.103,-0.313Z" style="fill-rule:nonzero;"/>
                    </g>
                    <g transform="matrix(288,0,0,288,797.501,322.328)">
                        <path d="M0.416,-0L0,-0L0,-0.416L0.103,-0.416L0.103,-0.104L0.313,-0.104L0.313,-0.416L0.416,-0.416L0.416,-0Z" style="fill-rule:nonzero;"/>
                    </g>
                    <g transform="matrix(288,0,0,288,947.549,322.328)">
                        <path d="M0.328,-0.417L0.328,-0.211L0.221,-0.211L0.221,-0.313L0.107,-0.313L0.107,-0L0,-0L0,-0.417L0.328,-0.417Z" style="fill-rule:nonzero;"/>
                    </g>
                    <g transform="matrix(288,0,0,288,1069.09,322.328)">
                        <path d="M0,-0.417L0.42,-0.417L0.42,-0.167L0.107,-0.167L0.107,-0.099L0.42,-0.099L0.42,-0.001L0,-0.001L0,-0.417ZM0.107,-0.252L0.313,-0.252L0.313,-0.324L0.107,-0.324L0.107,-0.252Z" style="fill-rule:nonzero;"/>
                    </g>
                    <g transform="matrix(288,0,0,288,191.549,514.328)">
                        <path d="M0.519,-0.416L0.313,-0.416L0.313,-0L0.206,-0L0.206,-0.416L0,-0.416L0,-0.523L0.519,-0.523L0.519,-0.416Z" style="fill-rule:nonzero;"/>
                    </g>
                    <g transform="matrix(288,0,0,288,365.501,514.328)">
                        <path d="M0.416,-0.417L0.416,-0L0.313,-0L0.313,-0.313L0.103,-0.313L0.103,-0L0,-0L0,-0.565L0.103,-0.565L0.103,-0.417L0.416,-0.417Z" style="fill-rule:nonzero;"/>
                    </g>
                    <g transform="matrix(288,0,0,288,516.125,514.328)">
                        <path d="M0,-0.417L0.42,-0.417L0.42,-0.167L0.107,-0.167L0.107,-0.099L0.42,-0.099L0.42,-0.001L0,-0.001L0,-0.417ZM0.107,-0.252L0.313,-0.252L0.313,-0.324L0.107,-0.324L0.107,-0.252Z" style="fill-rule:nonzero;"/>
                    </g>
                    <g transform="matrix(288,0,0,288,191.549,706.328)">
                        <path d="M0.103,-0.42L0.103,-0.314L0.519,-0.314L0.519,-0.21L0.103,-0.21L0.103,-0L0,-0L0,-0.524L0.519,-0.524L0.519,-0.42L0.103,-0.42Z" style="fill-rule:nonzero;"/>
                    </g>
                    <g transform="matrix(288,0,0,288,374.141,706.328)">
                        <rect x="0" y="-0.55" width="0.103" height="0.55" style="fill-rule:nonzero;"/>
                    </g>
                    <g transform="matrix(288,0,0,288,432.893,706.328)">
                        <path d="M0.42,-0.417L0.42,-0.001L0,-0.001L0,-0.251L0.313,-0.251L0.313,-0.319L0,-0.319L0,-0.417L0.42,-0.417ZM0.313,-0.094L0.313,-0.166L0.107,-0.166L0.107,-0.094L0.313,-0.094Z" style="fill-rule:nonzero;"/>
                    </g>
                    <g transform="matrix(288,0,0,288,583.805,706.328)">
                        <path d="M0.416,0.171L0,0.171L0,0.067L0.313,0.067L0.313,-0L0,-0L0,-0.417L0.416,-0.417L0.416,0.171ZM0.313,-0.104L0.313,-0.313L0.103,-0.313L0.103,-0.104L0.313,-0.104Z" style="fill-rule:nonzero;"/>
                    </g>
                </g>
                <g transform="matrix(1,0,0,1.04228,-179.51,-26.3367)">
                    <g transform="matrix(288,0,0,288,287.461,322.328)">
                        <path d="M0.523,-0.523L0.523,-0.206L0.386,-0.206L0.523,-0.074L0.523,-0L0.445,-0L0.239,-0.206L0.103,-0.206L0.103,-0L0,-0L0,-0.523L0.523,-0.523ZM0.416,-0.416L0.103,-0.416L0.103,-0.313L0.416,-0.313L0.416,-0.416Z" style="fill:rgb(196,25,17);fill-rule:nonzero;"/>
                    </g>
                    <g transform="matrix(288,0,0,288,468.613,322.328)">
                        <path d="M0.523,-0.523L0.523,-0.001L0.42,-0.001L0.42,-0.211L0.107,-0.211L0.107,-0.001L0,-0.001L0,-0.523L0.107,-0.523L0.107,-0.315L0.42,-0.315L0.42,-0.523L0.523,-0.523Z" style="fill:rgb(196,25,17);fill-rule:nonzero;"/>
                    </g>
                    <g transform="matrix(288,0,0,288,284.869,514.328)">
                        <path d="M0.107,-0.416L0.107,-0.104L0.523,-0.104L0.523,-0L0,-0L0,-0.52L0.523,-0.52L0.523,-0.416L0.107,-0.416Z" style="fill:rgb(196,25,17);fill-rule:nonzero;"/>
                    </g>
                    <g transform="matrix(288,0,0,288,468.613,514.328)">
                        <path d="M0.104,-0.416L0.104,-0.313L0.52,-0.313L0.52,-0L0.001,-0L0.001,-0.104L0.417,-0.104L0.417,-0.206L0.001,-0.206L0.001,-0.52L0.52,-0.52L0.52,-0.416L0.104,-0.416Z" style="fill:rgb(196,25,17);fill-rule:nonzero;"/>
                    </g>
                </g>
            </g>
        </g>
    </g>
</svg>
