<?xml version="1.0" standalone="no"?>
<!DOCTYPE svg PUBLIC "-//W3C//DTD SVG 20010904//EN"
 "http://www.w3.org/TR/2001/REC-SVG-20010904/DTD/svg10.dtd">
<svg version="1.0" xmlns="http://www.w3.org/2000/svg"
 width="2000.000000pt" height="800.000000pt" viewBox="0 0 2000.000000 800.000000"
 preserveAspectRatio="xMidYMid meet">

<g transform="translate(0.000000,800.000000) scale(0.100000,-0.100000)"
fill="#000000" stroke="none">
<path d="M10225 5267 c-1 -7 -14 -46 -28 -87 -47 -141 -77 -241 -77 -255 0 -7
17 -19 38 -25 20 -7 41 -16 47 -21 5 -5 19 -9 31 -9 31 0 55 50 126 268 19 60
19 100 -1 87 -5 -3 -13 0 -16 6 -4 5 -13 8 -20 5 -8 -3 -19 2 -25 9 -7 8 -16
12 -21 9 -5 -3 -9 -1 -9 4 0 14 -41 22 -45 9z"/>
<path d="M15313 5138 c-6 -7 -13 -26 -17 -43 -4 -16 -12 -50 -18 -75 -6 -25
-12 -54 -13 -65 -1 -11 -5 -27 -8 -35 -3 -8 -8 -37 -10 -65 -3 -27 -12 -95
-21 -150 -8 -55 -20 -134 -26 -175 -6 -41 -22 -133 -35 -205 -39 -211 -45
-246 -56 -330 -6 -44 -15 -84 -20 -90 -5 -5 -9 -25 -9 -45 0 -19 -10 -78 -21
-130 -32 -144 -35 -207 -14 -230 24 -26 43 -25 56 3 9 21 9 21 5 -3 -3 -18 2
-30 19 -43 15 -10 26 -13 30 -7 4 6 12 5 21 -4 8 -8 32 -14 54 -14 42 0 44 2
64 98 3 14 15 66 27 115 12 50 22 97 24 105 12 83 30 99 61 53 9 -16 71 -87
137 -160 107 -119 158 -163 191 -163 6 0 40 -14 74 -30 100 -47 168 -35 105
19 -34 29 -193 215 -193 226 0 4 -16 24 -35 44 -20 21 -44 52 -53 69 -9 17
-43 67 -74 112 l-58 81 59 77 c32 42 78 95 101 117 23 22 59 63 80 90 21 28
63 68 93 89 54 37 59 39 118 33 l61 -5 -7 26 c-4 15 -8 28 -9 29 -7 7 -118 53
-128 53 -6 0 -32 10 -56 21 -52 26 -135 30 -173 8 -15 -7 -45 -24 -67 -36 -22
-13 -43 -31 -47 -42 -5 -17 -33 -36 -41 -28 -4 4 24 254 31 277 3 10 13 74 21
142 9 68 18 140 21 160 5 34 2 39 -23 49 -16 6 -37 18 -47 27 -16 14 -19 14
-27 2 -8 -12 -10 -12 -10 4 0 15 -6 17 -35 14 -19 -2 -35 0 -35 5 0 12 -31 36
-46 37 -6 0 -16 -6 -21 -12z m134 -418 c-1 -16 -4 -30 -7 -30 -3 0 -6 -24 -7
-52 0 -29 -6 -54 -11 -56 -5 -1 -8 -12 -5 -22 4 -14 0 -20 -11 -20 -19 0 -20
9 -5 47 7 15 13 44 14 63 2 19 4 37 5 40 4 8 8 23 9 43 0 9 5 17 11 17 5 0 8
-13 7 -30z m-147 -180 c0 -5 -4 -10 -10 -10 -5 0 -10 5 -10 10 0 6 5 10 10 10
6 0 10 -4 10 -10z m18 -25 c-1 -14 -6 -25 -10 -25 -10 0 -10 13 -2 34 9 23 14
19 12 -9z m92 0 c0 -8 -4 -15 -8 -15 -4 0 -7 -16 -7 -35 1 -20 -2 -38 -7 -41
-5 -3 -6 -19 -3 -35 4 -17 2 -29 -3 -29 -6 0 -8 -9 -5 -19 3 -11 -2 -30 -11
-43 -10 -14 -16 -43 -16 -80 0 -34 -4 -58 -11 -58 -5 0 -7 -4 -4 -10 3 -5 0
-10 -7 -10 -10 0 -13 -16 -13 -57 0 -60 -14 -133 -26 -133 -9 0 -19 53 -11 64
3 6 7 19 8 30 6 50 16 103 24 129 5 15 7 34 4 42 -4 8 -1 15 6 15 9 0 6 8 -6
22 -18 21 -18 21 0 15 15 -6 17 -4 13 14 -4 13 1 29 13 42 15 15 17 24 9 34
-9 10 -8 13 1 13 8 0 11 10 8 30 -3 17 -1 30 3 30 5 0 11 23 15 50 4 32 11 50
20 50 8 0 14 -7 14 -15z m-100 -66 c0 -6 -4 -7 -10 -4 -5 3 -10 11 -10 16 0 6
5 7 10 4 6 -3 10 -11 10 -16z m-18 -24 c3 3 8 -3 11 -15 3 -11 1 -18 -4 -14
-5 3 -9 -4 -9 -15 0 -12 -7 -21 -15 -21 -8 0 -15 -5 -15 -11 0 -6 7 -9 15 -5
11 4 15 -1 15 -19 0 -13 -4 -26 -10 -30 -5 -3 -7 -12 -3 -20 3 -9 0 -22 -6
-29 -7 -8 -11 -20 -10 -28 2 -7 -2 -23 -9 -35 -7 -12 -8 -24 -3 -27 5 -3 7
-15 4 -26 -6 -23 -34 -23 -41 -1 -3 8 -1 11 4 8 5 -3 9 12 8 34 0 21 3 39 8
39 5 0 7 4 4 9 -12 18 6 101 22 101 11 0 12 3 2 15 -12 15 -4 59 10 50 4 -3
10 1 13 9 3 8 -1 17 -9 20 -8 3 -14 11 -14 17 0 8 4 9 13 0 8 -6 16 -8 19 -6z
m-52 -344 c0 -4 -3 -11 -7 -15 -5 -4 -8 -19 -8 -33 0 -15 -6 -28 -14 -31 -8
-3 -11 0 -7 6 3 6 1 12 -5 14 -7 2 -7 12 0 32 6 15 9 31 6 36 -3 4 4 6 15 3
11 -3 20 -9 20 -12z m-23 -121 c-2 -32 -5 -34 -25 -21 -12 7 -12 12 -1 30 19
29 29 26 26 -9z m80 -36 c3 -9 2 -19 -3 -23 -14 -9 -16 -27 -17 -143 -2 -140
-18 -161 -31 -40 -3 36 -2 51 6 46 6 -4 8 1 3 15 -4 14 -2 21 6 21 8 0 5 7 -6
20 -12 13 -14 20 -5 20 9 0 11 9 6 30 -4 22 -2 29 6 24 8 -5 9 -2 5 10 -4 10
-5 22 -1 27 8 14 24 11 31 -7z m-87 -35 c0 -10 -4 -19 -10 -19 -5 0 -10 12
-10 26 0 14 4 23 10 19 6 -3 10 -15 10 -26z m-10 -68 c0 -12 -20 -25 -27 -18
-7 7 6 27 18 27 5 0 9 -4 9 -9z m-13 -83 c-3 -7 -5 -2 -5 12 0 14 2 19 5 13 2
-7 2 -19 0 -25z"/>
<path d="M7450 5068 c-13 -28 -69 -249 -76 -298 -2 -19 -12 -60 -20 -90 -13
-49 -28 -129 -63 -340 -6 -36 -25 -159 -41 -275 -37 -256 -76 -492 -94 -579
-13 -64 -13 -66 10 -81 13 -8 29 -12 37 -9 8 3 22 -2 31 -11 9 -10 25 -15 36
-12 10 3 20 1 22 -4 6 -17 95 -20 101 -5 4 9 14 12 26 9 15 -4 21 -1 21 11 0
10 9 34 19 54 11 20 41 81 67 135 26 54 51 100 56 103 4 3 8 13 8 23 0 10 7
24 15 31 8 7 25 33 37 59 13 25 28 52 35 59 6 6 15 21 18 32 3 11 11 20 16 20
5 0 9 5 9 10 0 6 21 38 46 73 26 34 44 55 42 47 -3 -8 -26 -76 -51 -150 -26
-74 -51 -166 -56 -205 -10 -75 -8 -258 4 -288 8 -20 61 -51 74 -43 5 3 21 -1
37 -9 16 -7 51 -16 77 -19 l48 -6 -6 47 c-4 27 -1 95 5 153 7 58 13 119 14
135 0 17 3 32 7 35 3 3 22 57 43 120 48 147 70 203 101 263 14 27 25 59 25 72
0 12 7 28 15 35 8 7 15 21 15 32 0 10 7 33 16 50 21 41 15 135 -10 153 -9 7
-38 16 -63 20 -44 6 -61 12 -130 41 -45 20 -53 18 -113 -27 -97 -73 -175 -154
-240 -249 -13 -19 -35 -48 -48 -65 l-25 -30 6 75 c12 129 51 350 114 630 7 36
16 74 18 85 2 11 10 42 19 70 17 54 11 65 -31 65 -13 0 -23 5 -23 11 0 6 -9 9
-19 6 -11 -3 -29 2 -40 10 -13 8 -30 12 -42 8 -15 -5 -25 -1 -35 14 -20 28
-52 27 -64 -1z m35 -278 c3 -5 -1 -10 -9 -10 -19 0 -22 -40 -4 -58 9 -9 8 -13
-4 -17 -10 -4 -14 -14 -11 -26 4 -13 0 -19 -12 -19 -11 0 -15 6 -11 18 3 9 8
29 11 45 3 15 7 38 10 52 6 26 19 33 30 15z m100 -40 c3 -11 2 -35 -4 -52 -5
-18 -15 -62 -21 -98 -7 -36 -16 -85 -22 -110 -5 -25 -10 -58 -12 -75 -1 -16
-5 -37 -8 -45 -20 -55 -35 -123 -33 -154 1 -20 -2 -36 -8 -36 -5 0 -7 -6 -4
-14 3 -8 3 -17 -1 -21 -4 -4 -7 -16 -8 -28 -1 -12 -4 -30 -9 -39 -4 -10 -4
-25 -1 -34 4 -9 1 -23 -5 -30 -7 -8 -9 -29 -6 -49 3 -19 1 -37 -4 -40 -5 -4
-5 -13 1 -25 6 -10 7 -21 2 -23 -4 -3 -7 -46 -6 -96 1 -50 -1 -91 -3 -91 -3 0
-10 6 -17 13 -20 20 -28 70 -16 101 7 19 7 33 0 47 -8 14 -7 19 1 19 9 0 9 3
0 14 -9 11 -9 15 0 18 9 3 9 9 1 23 -6 13 -7 40 -1 78 5 32 7 62 4 68 -4 5 -1
9 4 9 6 0 9 20 8 50 -2 28 0 50 5 50 4 0 8 10 8 23 0 39 11 111 19 132 8 18
31 132 37 180 1 11 3 22 4 25 1 3 2 8 1 13 0 4 6 7 14 7 8 0 15 4 15 10 0 5
-7 7 -15 4 -8 -4 -15 -4 -15 -1 0 13 24 57 30 57 4 0 5 11 3 24 -3 13 0 27 6
30 6 4 11 20 11 35 0 44 33 68 45 31z m-105 -111 c0 -6 -4 -7 -10 -4 -5 3 -10
1 -10 -4 0 -6 5 -11 10 -11 6 0 10 -7 10 -16 0 -10 -6 -14 -15 -10 -10 3 -15
-1 -15 -13 0 -11 5 -21 10 -23 7 -2 5 -24 -5 -61 -8 -32 -13 -62 -10 -67 3 -5
2 -11 -3 -14 -4 -2 -9 -30 -10 -62 -1 -31 -6 -62 -12 -68 -5 -5 -10 -23 -10
-39 0 -33 -19 -107 -31 -121 -5 -5 -3 -18 2 -28 7 -14 7 -23 -1 -33 -6 -8 -11
-29 -9 -47 1 -18 -2 -41 -6 -51 -4 -10 -2 -24 5 -32 9 -10 9 -15 1 -15 -6 0
-11 -9 -11 -20 0 -12 -7 -20 -17 -20 -17 -1 -17 -1 -1 -14 10 -7 15 -16 12
-19 -10 -9 -34 4 -34 19 0 8 -4 14 -9 14 -5 0 -7 9 -4 20 4 16 8 18 19 9 11
-9 11 -6 -1 17 -15 29 -14 55 7 164 6 30 12 73 15 95 7 71 9 84 16 91 4 4 7
25 7 46 0 22 4 37 9 34 5 -4 8 10 6 31 -4 42 4 85 14 79 3 -2 6 12 6 32 -1 55
16 117 27 100 6 -8 7 -2 3 19 -5 25 -3 32 12 35 21 5 33 1 33 -13z m610 -405
c-18 -21 -24 -10 -8 15 7 12 14 17 16 11 2 -6 -2 -17 -8 -26z m-110 -29 c0
-14 -4 -25 -10 -25 -5 0 -10 -11 -10 -25 0 -14 -7 -28 -15 -31 -8 -3 -17 -21
-21 -40 -4 -20 -12 -34 -21 -34 -8 0 -11 -4 -8 -10 3 -5 1 -10 -5 -10 -6 0 -9
-4 -5 -9 3 -5 1 -12 -5 -16 -5 -3 -10 -15 -10 -26 0 -13 -7 -19 -22 -19 -19
-1 -20 -2 -7 -10 14 -8 15 -18 8 -56 -5 -26 -14 -52 -19 -59 -6 -7 -10 -17 -9
-21 4 -16 -13 -84 -23 -90 -5 -3 -6 -15 -3 -25 4 -11 2 -26 -4 -32 -5 -7 -10
-37 -9 -66 0 -34 -5 -57 -13 -62 -11 -6 -10 -9 4 -15 14 -5 15 -9 6 -20 -9
-11 -9 -14 0 -14 9 0 9 -5 1 -21 -7 -11 -9 -27 -6 -35 3 -9 1 -12 -4 -9 -6 3
-10 15 -10 25 0 10 -6 21 -12 24 -9 4 -10 8 -2 11 8 4 9 17 4 40 -5 21 -3 38
3 44 8 8 8 11 -1 11 -8 0 -10 9 -6 28 4 15 7 32 8 37 0 6 6 13 11 17 6 5 6 8
-1 8 -8 0 -9 13 -2 48 5 26 10 57 10 70 0 12 4 22 9 22 5 0 8 3 7 8 -1 4 2 32
6 62 8 55 21 90 38 101 5 3 11 12 12 20 5 24 19 54 28 60 5 3 11 12 13 20 10
42 19 59 36 64 12 4 19 16 19 31 0 13 5 24 10 24 6 0 10 7 10 15 0 8 5 15 10
15 6 0 10 -11 10 -25z m80 -30 c0 -14 -7 -28 -15 -31 -8 -4 -15 -12 -15 -20 0
-8 -5 -14 -11 -14 -6 0 -9 -7 -5 -15 3 -9 -3 -24 -14 -35 -11 -11 -15 -22 -10
-25 6 -4 4 -15 -4 -28 -16 -25 -23 -54 -31 -123 -4 -26 -11 -54 -16 -61 -7 -8
-7 -18 -1 -29 7 -12 6 -24 -3 -38 -18 -29 -26 -106 -12 -106 7 0 4 -7 -6 -14
-11 -9 -14 -17 -8 -21 15 -8 10 -55 -6 -55 -7 0 -10 6 -7 14 3 8 0 17 -5 21
-6 3 -9 10 -6 15 3 5 7 39 8 75 1 36 4 65 7 65 3 0 6 17 7 38 0 20 4 48 7 62
4 14 9 43 12 65 4 22 11 45 16 52 5 7 7 17 3 23 -4 6 4 28 18 48 14 20 28 56
32 80 4 26 12 42 21 42 8 0 14 9 14 20 0 11 7 20 15 20 9 0 15 -9 15 -25z
m-65 -275 c-11 -17 -23 -1 -18 21 5 19 7 19 15 5 5 -9 6 -21 3 -26z m-647 -88
c2 -7 -3 -12 -12 -12 -9 0 -16 7 -16 16 0 17 22 14 28 -4z"/>
<path d="M7431 4504 c0 -11 3 -14 6 -6 3 7 2 16 -1 19 -3 4 -6 -2 -5 -13z"/>
<path d="M12466 5068 c-9 -12 -16 -30 -16 -40 0 -9 -4 -27 -9 -40 -5 -13 -18
-66 -30 -118 -11 -52 -30 -133 -42 -180 -11 -47 -27 -129 -34 -183 -8 -53 -19
-106 -25 -116 -5 -11 -10 -40 -10 -64 0 -24 -4 -66 -9 -93 -5 -27 -26 -161
-46 -299 -20 -137 -47 -306 -61 -375 -13 -69 -24 -130 -24 -136 0 -11 36 -28
54 -25 4 1 19 -5 33 -14 14 -9 31 -14 38 -11 8 3 15 0 17 -5 2 -5 17 -11 33
-12 17 -1 33 -5 36 -10 3 -4 16 1 28 12 12 11 28 18 34 16 7 -2 22 19 35 48
13 29 33 72 45 97 12 25 22 47 22 50 0 3 7 16 15 30 38 67 71 128 84 157 9 17
20 34 26 38 5 3 10 14 10 25 0 10 7 20 15 23 8 3 23 26 35 52 11 25 25 45 30
45 6 0 10 5 10 10 0 6 14 29 30 52 17 22 30 37 30 31 0 -5 -23 -76 -51 -159
-51 -147 -52 -151 -57 -295 -5 -165 4 -209 44 -228 14 -6 30 -9 35 -5 6 3 15
1 22 -4 14 -11 57 -22 107 -28 l35 -4 -4 102 c-3 96 11 227 28 273 5 11 27 79
51 150 23 72 57 162 76 202 19 39 34 80 34 91 0 11 7 25 15 32 8 7 15 22 15
34 0 11 6 32 13 47 8 14 16 48 20 76 5 45 3 55 -18 77 -13 14 -34 26 -47 26
-13 1 -54 12 -93 26 -111 40 -106 41 -176 -11 -76 -56 -150 -132 -228 -235
-88 -116 -83 -114 -76 -45 8 82 33 243 52 340 44 225 72 354 80 375 3 8 8 24
10 35 2 11 8 37 14 58 12 45 6 57 -27 57 -13 0 -24 5 -24 11 0 6 -10 9 -22 8
-13 -2 -33 3 -46 10 -13 7 -31 10 -39 7 -9 -4 -24 2 -35 14 -24 26 -43 25 -62
-2z m34 -278 c0 -5 -4 -10 -9 -10 -17 0 -19 -49 -2 -55 14 -6 14 -8 -3 -21
-17 -12 -18 -17 -8 -39 15 -33 15 -38 0 -29 -7 4 -5 -2 5 -13 18 -20 9 -41
-12 -29 -10 7 -8 -9 4 -38 5 -11 3 -33 -5 -55 -13 -35 -15 -51 -24 -154 -2
-26 -8 -53 -13 -60 -6 -6 -11 -30 -12 -52 -2 -22 -3 -46 -3 -52 -1 -7 -5 -13
-10 -13 -5 0 -6 -5 -3 -10 4 -6 1 -17 -5 -25 -6 -8 -9 -23 -5 -35 4 -12 1 -27
-5 -36 -8 -8 -10 -27 -6 -45 3 -17 1 -40 -5 -50 -7 -15 -7 -24 2 -35 9 -11 9
-14 -1 -14 -7 0 -10 -7 -6 -15 3 -9 -1 -18 -9 -22 -12 -4 -13 -9 -4 -19 6 -7
9 -18 7 -23 -6 -17 -36 14 -44 44 -6 23 -4 27 8 23 13 -5 13 -1 2 30 -7 22 -9
43 -4 53 5 9 9 24 10 35 1 32 7 76 15 124 4 25 9 56 11 70 9 86 18 130 26 130
6 0 8 7 5 15 -4 8 -2 17 4 20 5 4 6 13 1 22 -12 20 -3 65 11 56 7 -4 8 0 4 11
-4 10 -4 23 0 29 4 7 8 26 9 42 3 69 3 71 15 55 8 -12 9 -9 5 12 -4 19 -1 30
11 37 17 10 17 10 1 11 -10 0 -18 5 -18 11 0 5 5 7 12 3 7 -5 9 -2 5 8 -3 9
-1 33 4 54 6 22 11 45 11 52 2 14 28 17 28 2z m100 -60 c0 -16 -5 -32 -10 -35
-6 -4 -10 -21 -10 -38 1 -44 -9 -106 -20 -128 -6 -10 -10 -31 -10 -48 0 -16
-4 -32 -9 -36 -5 -3 -7 -21 -4 -40 3 -21 1 -35 -5 -35 -5 0 -10 -10 -10 -22 0
-13 -3 -34 -7 -48 -4 -14 -8 -33 -8 -42 -1 -10 -5 -18 -9 -18 -4 0 -5 -13 -1
-30 3 -20 1 -30 -6 -30 -7 0 -9 -4 -6 -10 3 -5 3 -15 -1 -21 -3 -6 -8 -36 -11
-67 -2 -30 -6 -59 -10 -64 -9 -16 -18 -255 -11 -300 5 -27 -16 -23 -30 6 -14
28 -14 32 -9 106 2 25 0 51 -6 58 -6 8 -6 12 1 12 7 0 9 17 5 49 -3 28 -2 58
2 68 5 10 9 29 10 43 9 104 16 162 25 185 5 14 10 39 10 55 0 16 5 32 11 35 6
4 8 13 6 19 -4 11 -2 33 17 131 10 49 19 75 27 75 5 0 9 8 9 18 0 14 -2 15
-10 2 -9 -13 -10 -13 -10 0 0 9 7 26 16 38 8 12 13 31 9 41 -3 11 -1 22 5 26
5 3 10 16 10 27 0 25 28 60 41 52 5 -3 9 -18 9 -34z m520 -467 c-1 -14 -30
-47 -36 -41 -3 3 3 16 13 27 19 23 23 25 23 14z m-141 -98 c-7 -25 -19 -45
-25 -45 -7 0 -15 -16 -18 -35 -4 -19 -11 -35 -16 -35 -5 0 -12 -11 -16 -25 -3
-14 -11 -25 -16 -25 -6 0 -7 -7 -4 -15 4 -10 -2 -19 -16 -24 -19 -7 -20 -8 -3
-14 13 -6 15 -10 6 -20 -6 -8 -9 -23 -6 -35 2 -12 0 -22 -5 -22 -5 0 -12 -17
-17 -37 -9 -45 -10 -51 -13 -60 -1 -5 -3 -12 -4 -18 -1 -5 -5 -17 -8 -25 -12
-29 -19 -76 -18 -127 1 -28 -4 -54 -10 -58 -6 -4 -7 -12 -3 -18 5 -7 8 -21 7
-32 -5 -86 -4 -82 -17 -60 -12 20 -19 225 -8 225 3 0 6 17 7 38 1 64 8 107 18
114 5 3 11 32 13 63 2 31 10 63 17 71 8 7 22 35 32 61 10 27 24 52 31 56 7 4
13 17 13 27 0 11 5 20 11 20 5 0 7 4 4 10 -3 5 3 15 15 22 11 7 20 21 20 30 0
20 33 59 38 45 2 -4 -2 -28 -9 -52z m95 8 c-4 -16 -11 -29 -16 -31 -4 -2 -8
-10 -8 -18 0 -8 -7 -14 -15 -14 -9 0 -12 -6 -8 -15 3 -9 -3 -25 -12 -35 -10
-11 -15 -23 -12 -27 4 -3 2 -12 -4 -20 -6 -7 -8 -13 -3 -13 5 0 4 -4 -3 -8
-10 -7 -23 -69 -24 -116 0 -10 -6 -31 -14 -46 -8 -16 -10 -32 -5 -40 5 -8 5
-21 -1 -31 -5 -10 -9 -31 -9 -48 0 -16 -5 -33 -11 -37 -8 -4 -8 -9 0 -17 7 -7
7 -14 0 -23 -6 -7 -6 -15 -1 -18 15 -9 1 -56 -15 -56 -13 0 -13 3 -3 15 7 8 8
15 3 15 -10 0 -11 109 -1 125 3 6 6 28 6 50 2 58 9 106 21 138 6 15 10 31 9
35 -3 13 13 67 27 93 8 14 22 48 31 75 9 27 23 53 30 57 8 4 14 15 14 22 0 8
7 15 15 15 12 0 14 -7 9 -27z m-73 -276 c-8 -8 -11 -7 -11 4 0 20 13 34 18 19
3 -7 -1 -17 -7 -23z m-646 -97 c-6 -9 -9 -9 -16 1 -10 17 0 34 13 21 6 -6 7
-16 3 -22z"/>
<path d="M12451 4514 c0 -11 3 -14 6 -6 3 7 2 16 -1 19 -3 4 -6 -2 -5 -13z"/>
<path d="M4053 5013 c-13 -8 -23 -22 -23 -29 0 -8 -6 -14 -12 -14 -18 0 -98
-130 -98 -158 0 -8 -6 -26 -14 -40 -20 -38 -42 -106 -87 -277 -22 -82 -44
-158 -49 -167 -6 -10 -10 -33 -10 -51 0 -58 -13 -64 -137 -70 -62 -3 -117 -8
-122 -12 -14 -8 9 -45 27 -45 7 0 39 -13 72 -30 33 -16 71 -30 84 -30 14 0 27
-4 30 -8 2 -4 -4 -55 -15 -112 -11 -58 -24 -136 -29 -175 -17 -127 -41 -289
-50 -343 -8 -43 -7 -58 6 -78 16 -24 44 -33 44 -14 0 18 18 11 25 -10 3 -11
14 -20 24 -20 10 0 24 -7 31 -15 9 -11 16 -12 30 -3 14 9 22 9 33 -1 13 -10
17 -9 25 6 8 15 37 152 56 273 4 19 8 42 9 50 6 30 17 86 22 110 39 215 58
306 66 322 11 21 43 22 194 8 114 -12 163 -6 145 15 -7 8 -37 21 -68 30 -32
10 -68 23 -82 30 -53 27 -76 35 -115 37 -33 3 -40 7 -39 23 2 26 9 66 17 85 3
8 20 67 38 130 18 63 33 116 34 117 2 4 110 -39 123 -49 6 -6 12 -8 12 -4 0 4
10 0 23 -8 12 -7 39 -16 60 -19 l37 -6 0 72 c0 77 17 184 49 312 19 78 19 101
0 90 -5 -4 -9 -1 -9 6 0 7 -3 10 -6 6 -3 -3 -27 6 -52 19 -25 14 -51 23 -58
20 -6 -2 -18 4 -27 15 -18 20 -53 25 -76 10 -8 -5 -24 -3 -40 5 -34 18 -70 17
-98 -3z m38 -216 c-10 -9 -11 -8 -5 6 3 10 9 15 12 12 3 -3 0 -11 -7 -18z
m-61 -17 c0 -5 -10 -10 -22 -9 -22 0 -22 1 -3 9 11 5 21 9 23 9 1 1 2 -3 2 -9z
m51 -17 c-14 -29 -29 -66 -36 -90 -4 -13 -10 -23 -15 -23 -5 0 -7 -7 -4 -15 4
-11 -1 -15 -17 -15 l-22 0 21 23 c11 12 24 34 27 50 4 15 11 27 17 27 5 0 6 5
3 10 -10 16 5 50 21 50 10 0 12 -5 5 -17z m-69 -16 c-6 -7 -16 -32 -23 -57 -7
-25 -18 -52 -25 -60 -6 -8 -15 -30 -19 -47 -3 -18 -10 -33 -14 -33 -4 0 -7 -8
-7 -17 -1 -24 -10 -65 -23 -105 -5 -18 -19 -67 -31 -108 -12 -41 -26 -86 -32
-100 -7 -14 -12 -36 -13 -49 0 -14 -6 -26 -13 -29 -7 -2 -9 -8 -6 -13 3 -6 -1
-42 -10 -82 -8 -40 -18 -91 -21 -115 -4 -23 -11 -40 -15 -37 -5 3 -11 1 -15
-5 -3 -5 -2 -10 4 -10 10 0 5 -95 -7 -114 -3 -6 -5 -21 -3 -33 4 -32 -7 -47
-25 -33 -13 12 -12 112 2 171 4 13 10 44 14 69 13 68 29 130 42 154 6 11 13
32 14 46 7 68 16 105 26 111 6 4 12 18 14 31 5 44 12 76 22 95 6 10 10 20 10
23 -1 11 33 126 42 142 6 10 10 31 10 48 0 18 5 30 13 30 7 0 19 21 26 48 21
72 31 88 52 89 15 1 18 -1 11 -10z m95 -67 c1 -12 -4 -20 -13 -20 -12 0 -12 4
-4 20 6 11 12 20 13 20 2 0 3 -9 4 -20z m-17 -35 c0 -13 -31 -78 -35 -74 -7 7
17 79 27 79 4 0 8 -2 8 -5z m-77 -41 c7 -7 -14 -44 -25 -44 -5 0 -8 8 -8 18 0
27 18 41 33 26z m32 -101 c-6 -32 -17 -71 -25 -88 -17 -38 -17 -39 -19 -75 -1
-19 -6 -30 -16 -30 -8 0 -15 2 -15 4 0 2 7 23 15 46 8 23 15 55 15 71 0 16 3
29 8 29 9 0 32 49 32 70 0 14 8 30 15 30 1 0 -4 -26 -10 -57z m-45 38 c0 -5
-10 -31 -21 -58 -12 -26 -23 -55 -23 -63 -2 -24 -17 -94 -23 -110 -4 -8 -5
-21 -4 -27 1 -7 -5 -13 -14 -13 -8 0 -15 -7 -15 -16 0 -8 4 -12 10 -9 11 7 1
-27 -11 -35 -4 -3 -9 -19 -11 -35 -2 -17 -7 -33 -11 -36 -4 -3 -12 -32 -17
-65 -22 -134 -33 -174 -50 -174 -17 0 -22 40 -6 55 8 9 13 26 10 39 -2 14 0
28 6 31 5 3 10 19 10 34 0 15 5 32 11 38 5 5 13 36 16 67 3 31 10 56 16 56 5
0 7 9 4 21 -3 11 3 35 14 54 11 18 19 37 18 41 -1 5 4 23 11 39 7 17 12 42 11
58 -1 15 3 27 9 27 5 0 10 8 10 18 0 10 5 23 12 30 7 7 8 12 4 12 -5 0 -3 7 4
15 14 17 30 20 30 6z m-26 -273 c-3 -44 -14 -78 -25 -78 -5 0 -9 -18 -9 -40 0
-22 -4 -49 -10 -60 -24 -48 -27 -56 -24 -72 1 -10 -1 -18 -5 -18 -16 0 -19 13
-9 39 6 14 11 33 12 41 1 8 5 22 8 30 13 32 38 141 41 173 1 9 6 17 13 17 6 0
10 -13 8 -32z m-74 -298 c0 -11 -4 -20 -10 -20 -5 0 -7 -17 -4 -39 5 -37 4
-39 -17 -34 -22 6 -22 7 -3 14 10 4 14 8 7 8 -13 1 -13 61 0 61 4 0 7 7 7 15
0 8 5 15 10 15 6 0 10 -9 10 -20z m-82 -120 c-1 -22 -5 -40 -10 -40 -4 0 -8
-14 -8 -32 0 -17 -3 -28 -7 -24 -11 10 -11 96 -1 96 5 0 6 9 3 20 -4 14 -2 20
9 20 12 0 15 -10 14 -40z m-28 -130 c0 -5 -4 -10 -10 -10 -5 0 -10 5 -10 10 0
6 5 10 10 10 6 0 10 -4 10 -10z m-63 -88 c2 -56 -12 -72 -19 -22 -3 17 -1 30
4 30 14 0 9 22 -9 37 -17 13 -17 14 2 11 17 -3 20 -12 22 -56z"/>
<path d="M6718 4519 c-43 -15 -93 -37 -112 -49 -156 -96 -286 -251 -286 -342
0 -29 49 -76 98 -94 26 -9 76 -28 112 -42 54 -21 83 -25 170 -26 l105 -1 17
-35 c73 -145 -100 -457 -325 -585 -63 -37 -71 -34 -62 22 7 51 66 133 133 185
20 16 55 45 77 65 22 20 59 44 83 54 24 11 42 24 40 30 -4 12 -122 59 -148 59
-8 0 -21 9 -28 20 -15 25 -46 25 -92 0 -19 -10 -46 -24 -59 -30 -13 -6 -41
-26 -63 -45 -23 -19 -43 -33 -47 -32 -9 3 -114 -104 -128 -131 -19 -36 -43
-122 -43 -156 0 -55 36 -111 90 -140 28 -15 54 -25 59 -22 5 3 14 -1 21 -9 7
-8 23 -15 36 -15 13 0 24 -4 24 -9 0 -7 63 -22 143 -34 57 -9 157 22 235 71
41 26 77 53 79 60 3 6 9 12 14 12 5 0 20 12 33 28 14 15 48 54 76 86 45 50 50
60 36 68 -18 10 -22 53 -6 63 6 4 8 11 5 16 -4 5 -1 17 5 26 9 15 10 11 6 -19
-4 -29 -1 -37 14 -41 14 -3 23 4 33 27 79 168 65 304 -39 387 -27 21 -57 39
-66 39 -9 0 -20 5 -23 10 -3 6 -13 10 -20 10 -8 0 -43 14 -77 30 -34 17 -69
30 -78 30 -9 0 -20 4 -25 9 -6 6 -28 12 -50 14 -21 2 -41 9 -42 14 -4 10 127
149 179 190 43 34 92 57 96 45 2 -7 11 -8 28 -2 19 8 29 5 45 -11 11 -11 30
-21 42 -22 12 -1 33 -7 46 -13 13 -7 30 -10 37 -7 8 3 17 -3 20 -12 5 -13 13
-5 30 32 41 84 27 117 -66 151 -30 11 -91 37 -135 57 -104 47 -149 50 -247 14z
m12 -209 c0 -11 -48 -25 -57 -16 -4 3 4 6 16 6 12 0 19 4 16 10 -3 6 1 10 9
10 9 0 16 -4 16 -10z m-60 -38 c0 -8 -15 -29 -57 -80 -13 -15 -23 -30 -23 -34
0 -11 -38 -48 -49 -48 -24 0 -19 22 14 57 19 20 35 42 35 49 0 6 10 15 23 19
14 4 17 8 9 12 -10 4 -9 8 5 19 20 15 43 18 43 6z m-145 -188 c-9 -9 -18 -14
-21 -11 -9 9 6 27 22 27 13 0 13 -2 -1 -16z m535 -448 c0 -11 -19 -15 -25 -6
-3 5 1 10 9 10 9 0 16 -2 16 -4z m10 -30 c0 -11 -19 -15 -25 -6 -3 5 1 10 9
10 9 0 16 -2 16 -4z m-10 -45 c0 -6 -4 -13 -10 -16 -5 -3 -10 1 -10 9 0 9 5
16 10 16 6 0 10 -4 10 -9z"/>
<path d="M10979 4525 c-85 -29 -99 -37 -189 -101 -127 -91 -220 -217 -220
-300 0 -31 40 -69 96 -89 27 -10 78 -29 114 -43 54 -21 83 -25 170 -26 l105
-1 18 -35 c38 -72 -1 -236 -85 -358 -68 -100 -247 -252 -297 -252 -10 0 -12
10 -6 47 5 34 19 61 50 99 56 69 189 181 243 205 24 10 42 24 40 30 -4 12
-122 59 -150 59 -10 0 -22 9 -28 20 -13 25 -44 25 -90 0 -19 -10 -48 -25 -65
-33 -16 -8 -39 -24 -49 -36 -11 -11 -25 -21 -33 -21 -7 0 -13 -4 -13 -10 0 -5
-3 -9 -7 -8 -11 4 -115 -101 -130 -130 -40 -74 -53 -182 -28 -216 8 -10 12
-23 9 -27 -7 -11 83 -69 119 -76 15 -3 30 -10 33 -14 3 -5 16 -9 30 -9 13 0
24 -4 24 -9 0 -7 64 -23 142 -34 86 -13 237 53 332 145 22 21 44 38 48 38 4 0
8 5 8 12 0 7 21 34 47 60 42 43 46 51 35 68 -15 24 -16 57 -2 65 6 4 8 11 5
16 -4 5 -1 17 5 26 9 15 10 11 6 -19 -3 -26 -1 -37 7 -35 7 1 11 -5 9 -13 -7
-39 38 41 59 104 45 138 22 246 -67 317 -27 21 -55 39 -62 39 -7 0 -20 4 -30
9 -9 5 -44 20 -77 33 -33 13 -61 26 -63 31 -2 4 -14 7 -26 7 -12 0 -26 4 -31
9 -6 6 -28 12 -50 14 -22 2 -40 9 -40 15 0 17 95 126 131 151 16 11 39 29 50
39 35 33 86 58 91 45 3 -8 12 -9 29 -3 19 8 29 5 45 -11 11 -11 30 -21 42 -22
12 -1 33 -7 46 -13 13 -7 29 -10 36 -8 7 3 15 -3 19 -12 5 -14 12 -7 31 32 43
86 30 116 -66 152 -30 11 -90 37 -134 57 -100 46 -150 50 -236 20z m1 -215 c0
-11 -48 -25 -57 -16 -4 3 4 6 16 6 12 0 19 4 16 10 -3 6 1 10 9 10 9 0 16 -4
16 -10z m-60 -38 c0 -8 -15 -29 -57 -80 -13 -15 -23 -30 -23 -34 0 -11 -38
-48 -49 -48 -24 0 -19 22 14 57 19 20 35 42 35 49 0 6 10 15 23 19 14 4 17 8
9 12 -10 4 -9 8 5 19 20 15 43 18 43 6z m-145 -188 c-9 -9 -18 -14 -21 -11 -9
9 6 27 22 27 13 0 13 -2 -1 -16z m535 -448 c0 -11 -19 -15 -25 -6 -3 5 1 10 9
10 9 0 16 -2 16 -4z m10 -30 c0 -11 -19 -15 -25 -6 -3 5 1 10 9 10 9 0 16 -2
16 -4z m-10 -45 c0 -6 -4 -13 -10 -16 -5 -3 -10 1 -10 9 0 9 5 16 10 16 6 0
10 -4 10 -9z"/>
<path d="M4571 4518 c-6 -10 -9 -23 -6 -28 4 -6 2 -10 -3 -10 -10 0 -42 -92
-42 -122 0 -11 -5 -28 -10 -39 -16 -28 -55 -248 -75 -416 -2 -18 -7 -47 -11
-65 -4 -18 -8 -53 -9 -78 -2 -25 -10 -101 -19 -170 -9 -68 -16 -139 -16 -157
0 -35 29 -73 55 -73 8 0 23 -4 33 -10 30 -16 113 -40 122 -35 5 3 11 1 15 -5
22 -35 62 30 70 111 4 35 10 73 14 84 5 11 17 46 27 79 10 32 24 65 31 72 7 7
13 19 13 26 0 8 5 19 10 24 13 13 57 89 73 127 6 15 15 27 19 27 4 0 17 19 29
42 11 22 39 64 62 92 l40 51 -7 -34 c-3 -19 -9 -71 -12 -116 -7 -81 -6 -82 22
-108 19 -18 35 -25 47 -21 13 4 24 -1 34 -16 11 -15 23 -20 39 -17 13 2 25 -1
28 -9 3 -7 24 -12 56 -12 28 -1 48 3 45 7 -7 12 10 101 49 266 62 255 84 397
67 423 -10 16 -84 49 -138 62 -29 6 -57 18 -64 26 -20 24 -75 17 -111 -14 -18
-16 -41 -31 -50 -35 -10 -4 -18 -11 -18 -17 0 -12 -167 -203 -183 -209 -5 -2
-7 2 -3 8 4 6 11 51 16 100 5 48 12 95 16 104 4 12 -3 17 -30 23 -20 3 -36 10
-36 15 0 14 -28 11 -33 -3 -3 -8 -6 -6 -6 4 -1 22 -37 43 -44 25 -4 -8 -6 -7
-6 3 -1 13 -2 13 -11 0 -8 -13 -11 -12 -16 6 -8 30 -57 37 -73 12z m49 -165
c0 -5 -5 -15 -10 -23 -8 -12 -10 -11 -10 8 0 12 5 22 10 22 6 0 10 -3 10 -7z
m127 -35 c1 -13 7 -24 13 -26 11 -4 14 -45 3 -56 -9 -9 -13 -40 -17 -141 -2
-44 -8 -91 -15 -103 -7 -13 -9 -32 -6 -42 4 -12 2 -20 -4 -20 -6 0 -11 -15
-11 -33 0 -19 -3 -37 -7 -41 -7 -7 -12 -32 -16 -75 -4 -41 -22 -33 -22 9 0 22
5 40 10 40 6 0 11 21 13 47 2 26 6 51 9 56 3 5 7 30 9 56 3 46 9 92 13 101 2
5 10 102 15 195 2 28 4 51 5 53 4 7 7 0 8 -20z m-135 -119 c1 -35 -2 -107 -6
-159 -3 -52 -7 -104 -7 -115 0 -10 -3 -24 -8 -30 -4 -5 -8 -23 -9 -39 -1 -17
-5 -32 -10 -35 -4 -3 -8 -19 -10 -36 -2 -16 -7 -31 -11 -33 -5 -1 -7 -18 -5
-37 1 -19 -2 -37 -7 -41 -5 -3 -9 -14 -9 -25 0 -23 -15 -25 -24 -4 -3 8 -2 15
2 15 4 0 6 17 4 39 -2 22 1 42 8 46 8 5 8 11 -1 22 -8 9 -9 17 -3 21 5 4 15
25 21 46 10 33 10 41 -3 51 -19 13 -9 66 11 59 16 -6 27 93 14 119 -6 11 -6
17 1 17 14 0 13 27 -2 33 -10 4 -10 8 1 15 8 6 15 34 18 68 5 74 10 91 24 77
6 -6 11 -39 11 -74z m613 -17 c-2 -31 -5 -64 -6 -72 0 -8 -8 -34 -16 -57 -8
-23 -12 -46 -8 -52 3 -6 1 -11 -4 -11 -6 0 -11 -11 -11 -25 0 -26 -19 -75 -29
-75 -8 0 -1 143 8 150 3 3 7 12 8 20 1 8 7 33 13 55 7 22 13 57 15 77 3 42 12
61 26 53 5 -4 7 -32 4 -63z m76 11 c-5 -21 -15 -59 -22 -85 -9 -38 -16 -48
-32 -48 -16 0 -18 3 -10 11 6 6 9 18 6 27 -5 11 -3 13 7 7 10 -6 12 -4 7 8 -3
10 -2 17 2 17 5 0 7 8 4 18 -4 16 37 94 45 87 2 -2 -1 -20 -7 -42z m-185 -60
c-10 -10 -19 5 -10 18 6 11 8 11 12 0 2 -7 1 -15 -2 -18z m-556 -95 c0 -7 -4
-19 -9 -27 -7 -10 -9 -7 -8 12 2 26 17 39 17 15z m700 -18 c0 -32 -14 -40 -24
-14 -10 27 -7 44 9 44 10 0 15 -10 15 -30z m-197 -165 c-3 -13 -9 -23 -13 -20
-4 2 -5 16 -3 30 3 13 9 23 13 20 4 -2 5 -16 3 -30z"/>
<path d="M4537 3911 c-4 -17 -3 -21 5 -13 5 5 8 16 6 23 -3 8 -7 3 -11 -10z"/>
<path d="M9205 4530 c-10 -16 -45 -122 -63 -190 -28 -103 -62 -303 -77 -444
-3 -27 -9 -56 -14 -65 -5 -9 -9 -36 -9 -61 0 -25 -8 -101 -18 -170 -9 -69 -16
-142 -15 -163 2 -39 29 -77 56 -77 8 0 23 -4 33 -10 30 -16 113 -40 122 -35 5
3 11 1 15 -5 21 -34 61 31 70 114 3 33 10 70 14 81 4 11 18 52 31 92 13 40 27
70 31 67 5 -3 9 4 9 15 0 11 6 26 13 33 7 7 27 42 46 77 18 35 42 72 52 82 11
11 19 24 19 30 0 11 92 140 97 136 1 -2 -2 -32 -7 -67 -5 -36 -10 -88 -10
-116 0 -44 3 -53 30 -73 17 -12 35 -19 41 -15 6 3 21 -4 34 -16 15 -14 32 -21
44 -17 11 3 22 -1 25 -8 3 -8 22 -13 49 -13 l45 0 7 46 c7 52 28 147 50 232
46 172 74 345 66 416 -1 13 -73 45 -143 64 -26 7 -53 19 -59 26 -17 21 -69 17
-106 -8 -18 -13 -33 -26 -33 -30 0 -5 -7 -8 -15 -8 -9 0 -19 -8 -22 -17 -8
-21 -170 -206 -186 -212 -5 -2 -7 1 -4 6 4 6 11 51 17 101 5 50 13 97 16 106
4 11 -4 17 -30 22 -20 3 -36 10 -36 15 0 14 -28 11 -33 -3 -3 -8 -6 -6 -6 4
-1 22 -37 43 -44 25 -4 -9 -6 -8 -6 2 -1 11 -4 11 -16 1 -12 -10 -15 -9 -15 8
0 14 -8 21 -30 24 -17 3 -33 2 -35 -2z m45 -177 c0 -5 -5 -15 -10 -23 -8 -12
-10 -11 -10 8 0 12 5 22 10 22 6 0 10 -3 10 -7z m127 -35 c1 -11 7 -24 14 -29
8 -4 9 -16 4 -35 -14 -52 -16 -58 -20 -113 -3 -30 -7 -56 -10 -59 -2 -3 0 -13
6 -23 7 -13 5 -29 -6 -55 -8 -21 -13 -45 -9 -56 3 -10 1 -18 -5 -18 -6 0 -11
-15 -11 -33 0 -19 -3 -37 -7 -41 -7 -7 -10 -20 -17 -71 -5 -44 -21 -41 -21 5
-1 27 3 40 13 40 7 0 11 4 8 8 -2 4 2 50 10 102 9 52 15 106 16 120 0 14 4 30
10 37 6 8 6 19 -2 33 -6 11 -8 25 -4 32 8 13 14 53 18 123 2 28 4 51 5 53 4 7
7 -1 8 -20z m-140 -65 c4 -16 7 -48 6 -73 -3 -86 -11 -195 -18 -240 -4 -25 -9
-62 -12 -82 -3 -21 -8 -38 -12 -38 -3 0 -7 -15 -8 -32 -2 -18 -7 -34 -11 -36
-5 -1 -8 -18 -6 -37 1 -19 -2 -37 -7 -41 -5 -3 -9 -14 -9 -25 0 -23 -15 -25
-24 -4 -3 8 -2 15 2 15 4 0 6 20 4 45 -3 32 0 45 9 45 10 0 10 3 2 11 -7 7 -8
18 -4 28 5 9 13 31 19 50 10 28 9 36 -4 45 -19 14 -9 67 11 60 17 -7 27 95 11
115 -8 11 -8 15 2 18 6 3 12 11 12 18 0 7 -6 16 -12 19 -10 5 -10 7 0 12 6 3
10 10 6 15 -3 5 -1 9 4 9 6 0 10 6 9 13 -3 99 14 151 30 90z m619 -66 c-6 -63
-9 -80 -24 -135 -7 -23 -10 -47 -7 -52 3 -6 1 -10 -4 -10 -6 0 -11 -8 -11 -19
0 -25 -20 -81 -30 -81 -8 0 0 142 9 150 3 3 7 12 8 20 1 8 7 35 13 60 6 25 12
59 15 77 8 75 37 65 31 -10z m79 26 c-5 -10 -10 -29 -12 -43 -10 -68 -28 -110
-47 -110 -15 0 -17 3 -9 11 6 6 9 18 6 27 -4 9 -2 13 4 9 6 -4 10 8 11 27 1
19 12 49 24 69 24 36 36 42 23 10z m-189 -80 c-10 -10 -19 5 -10 18 6 11 8 11
12 0 2 -7 1 -15 -2 -18z m-556 -95 c0 -7 -4 -19 -9 -27 -6 -9 -8 -5 -8 13 0
14 3 26 8 26 5 0 9 -6 9 -12z m700 -18 c0 -32 -14 -40 -24 -14 -10 27 -7 44 9
44 10 0 15 -10 15 -30z m-200 -161 c0 -16 -4 -28 -9 -25 -8 5 -3 56 5 56 2 0
4 -14 4 -31z"/>
<path d="M9167 3911 c-4 -17 -3 -21 5 -13 5 5 8 16 6 23 -3 8 -7 3 -11 -10z"/>
<path d="M14620 4530 c-8 -5 -23 -10 -32 -10 -18 0 -81 -38 -109 -65 -9 -8
-18 -15 -22 -15 -8 0 -111 -109 -116 -123 -2 -7 -21 -33 -42 -60 -53 -67 -122
-214 -154 -331 -24 -87 -27 -111 -23 -205 3 -71 11 -118 22 -141 57 -119 76
-132 281 -201 114 -39 199 -12 312 100 63 62 163 194 163 215 0 4 10 21 21 38
26 36 84 145 93 176 6 17 3 22 -11 22 -10 0 -29 7 -41 16 -12 8 -22 10 -22 5
0 -6 -4 -11 -10 -11 -5 0 -10 7 -10 16 0 8 -5 12 -10 9 -16 -10 -50 5 -50 21
0 8 -4 14 -9 14 -5 0 -16 3 -25 6 -10 4 -19 -5 -30 -30 -8 -20 -16 -40 -16
-44 -1 -4 -7 -10 -15 -15 -7 -4 -16 -21 -20 -38 -4 -16 -15 -35 -26 -42 -10
-6 -19 -19 -19 -29 0 -9 -5 -20 -11 -24 -6 -3 -16 -18 -22 -33 -16 -34 -90
-140 -99 -141 -5 0 -16 -7 -25 -15 -92 -80 -130 -102 -147 -85 -24 24 1 296
31 331 7 8 18 31 24 50 15 45 59 134 92 186 15 24 27 47 27 53 0 5 5 10 10 10
6 0 10 4 10 10 0 5 18 28 40 51 36 38 42 41 65 31 19 -9 25 -9 25 0 0 6 8 4
18 -5 10 -10 26 -17 35 -17 9 0 22 -8 28 -19 10 -15 19 -17 45 -11 19 5 34 4
36 -2 7 -19 34 4 46 40 33 95 42 152 29 174 -11 19 -143 88 -170 88 -7 0 -39
14 -72 30 -65 33 -73 34 -95 20z m-50 -305 c-7 -9 -15 -13 -19 -10 -3 3 1 10
9 15 21 14 24 12 10 -5z m-48 -55 c-12 -16 -22 -36 -22 -45 0 -8 -7 -15 -15
-15 -9 0 -15 9 -15 23 0 18 2 19 10 7 8 -13 10 -12 10 4 0 21 40 70 48 61 3
-3 -4 -19 -16 -35z m-52 -80 c0 -11 -14 -46 -30 -77 -17 -31 -28 -58 -26 -61
3 -2 -1 -11 -9 -18 -10 -11 -31 -81 -40 -134 0 -3 -4 -11 -8 -17 -5 -7 -6 -17
-2 -22 3 -5 1 -12 -5 -16 -5 -3 -10 -27 -10 -51 0 -32 -4 -44 -12 -41 -15 4
-20 115 -6 123 4 3 8 16 8 29 0 13 4 26 9 29 5 3 7 14 4 24 -2 11 4 34 15 52
11 18 18 39 15 46 -3 8 2 16 10 20 8 3 18 21 21 40 4 19 10 34 14 34 4 0 13
14 19 30 13 34 33 40 33 10z m-260 -340 c0 -5 -4 -10 -10 -10 -5 0 -10 5 -10
10 0 6 5 10 10 10 6 0 10 -4 10 -10z"/>
<path d="M5770 4482 c-19 -6 -83 -53 -92 -67 -3 -6 -17 -22 -30 -36 -44 -50
-56 -67 -51 -73 4 -3 1 -6 -5 -6 -7 0 -12 -11 -12 -25 0 -14 -4 -26 -10 -26
-5 -1 -15 -2 -21 -3 -11 -1 -85 -141 -109 -206 -21 -57 -43 -190 -43 -260 -1
-76 36 -211 64 -236 11 -10 19 -22 19 -28 0 -15 29 -32 98 -57 31 -12 61 -25
66 -30 6 -5 41 -9 80 -9 94 0 142 24 239 122 42 43 82 78 87 78 6 0 10 5 10
11 0 7 17 31 39 54 21 23 44 51 50 62 10 19 7 21 -35 28 -25 3 -48 13 -51 21
-3 8 -18 14 -34 14 -19 0 -29 5 -29 15 0 8 -9 15 -20 15 -30 0 -25 12 28 63
61 60 102 111 102 129 0 8 6 20 13 26 19 19 34 131 25 182 -5 25 -10 54 -12
65 -11 62 -54 124 -76 110 -5 -3 -10 -1 -10 4 0 6 -11 11 -24 11 -13 0 -29 7
-36 15 -7 9 -15 13 -18 10 -3 -3 -15 1 -26 8 -30 19 -65 27 -72 16 -3 -6 -13
-8 -22 -5 -32 10 -67 13 -82 8z m-30 -167 c0 -8 -7 -15 -16 -15 -14 0 -14 3
-4 15 7 8 14 15 16 15 2 0 4 -7 4 -15z m-20 -35 c0 -5 -5 -10 -11 -10 -5 0 -7
5 -4 10 3 6 8 10 11 10 2 0 4 -4 4 -10z m-24 -46 c-4 -9 -9 -15 -11 -12 -3 3
-3 13 1 22 4 9 9 15 11 12 3 -3 3 -13 -1 -22z m199 -117 c-34 -73 -110 -156
-127 -139 -10 10 -10 15 1 21 7 5 27 36 45 69 17 33 47 84 66 113 l35 54 3
-32 c2 -19 -7 -54 -23 -86z m-335 75 c-6 -2 -10 -15 -10 -28 0 -15 -6 -24 -16
-24 -12 0 -14 3 -6 13 6 6 11 17 11 22 1 6 4 18 7 29 5 15 8 16 15 5 5 -8 4
-15 -1 -17z m122 -21 c-17 -10 -19 -73 -3 -79 8 -3 11 0 7 6 -3 6 -1 14 5 18
8 4 9 -3 4 -27 -11 -59 -16 -69 -30 -69 -13 0 -23 -17 -21 -35 0 -5 12 -8 25
-6 15 2 21 -1 17 -8 -4 -6 -16 -11 -28 -11 -16 0 -18 -3 -9 -14 11 -13 8 -46
-6 -86 -3 -8 -5 -33 -4 -55 2 -32 0 -37 -10 -28 -15 15 -20 74 -7 91 7 8 7 12
-1 12 -6 0 -11 7 -11 15 0 8 3 15 8 15 4 0 6 18 4 40 -2 22 3 63 12 91 9 28
14 59 11 70 -4 11 -2 19 4 19 6 0 11 9 11 20 0 11 6 29 13 40 10 18 12 18 15
4 2 -9 -1 -19 -6 -23z m48 14 c-7 -9 -15 -13 -18 -10 -3 2 1 11 8 20 7 9 15
13 18 10 3 -2 -1 -11 -8 -20z m-15 -35 c-3 -5 -11 -10 -16 -10 -6 0 -7 5 -4
10 3 6 11 10 16 10 6 0 7 -4 4 -10z m-175 -31 c0 -5 -7 -32 -16 -60 -13 -39
-14 -52 -4 -64 16 -19 3 -40 -15 -25 -8 7 -11 22 -9 38 3 15 6 36 6 47 1 11 8
28 16 37 8 9 11 22 7 27 -3 6 -1 11 4 11 6 0 11 -5 11 -11z m0 -106 c-11 -17
-11 -17 -6 0 3 10 6 24 7 30 0 9 2 9 5 0 3 -7 0 -20 -6 -30z m-32 -65 c7 -7 8
-17 1 -29 -5 -10 -10 -36 -11 -58 -1 -22 -5 -46 -10 -53 -6 -8 -7 7 -4 39 4
36 2 53 -7 57 -9 3 -7 9 5 19 13 10 15 16 6 25 -7 7 -8 12 -2 12 6 0 15 -5 22
-12z m413 -135 c-18 -34 -155 -174 -198 -204 -51 -36 -56 -30 -51 57 3 58 3
59 34 60 17 0 52 12 78 27 27 15 50 27 52 27 2 0 20 11 40 25 43 29 58 32 45
8z m-291 -57 c0 -3 -4 -8 -10 -11 -5 -3 -10 -1 -10 4 0 6 5 11 10 11 6 0 10
-2 10 -4z"/>
<path d="M5640 4039 c0 -5 5 -7 10 -4 6 3 10 8 10 11 0 2 -4 4 -10 4 -5 0 -10
-5 -10 -11z"/>
<path d="M8574 4480 c-26 -10 -129 -113 -152 -152 -9 -16 -20 -28 -24 -28 -4
0 -8 -11 -8 -24 0 -14 -5 -28 -12 -32 -8 -5 -9 -1 -4 12 6 17 5 17 -7 4 -21
-21 -107 -191 -107 -210 0 -9 -4 -20 -9 -26 -14 -14 -31 -107 -38 -203 -5 -70
-2 -101 16 -166 12 -44 31 -92 41 -107 11 -15 20 -32 20 -38 0 -5 7 -10 15
-10 8 0 15 -4 15 -10 0 -5 12 -13 28 -16 15 -4 51 -18 80 -31 72 -32 168 -32
226 0 22 12 45 28 49 35 4 6 12 12 17 12 13 0 95 82 103 103 4 11 16 21 27 24
11 3 20 9 20 14 0 4 12 21 26 36 32 35 74 88 74 95 0 3 -18 8 -39 12 -22 3
-46 13 -55 21 -8 8 -24 15 -36 15 -11 0 -23 6 -26 14 -3 8 -15 17 -27 20 -20
5 -17 10 33 59 75 72 110 115 110 132 0 9 4 23 9 33 33 67 34 175 2 266 -21
59 -46 89 -68 81 -7 -2 -13 0 -13 5 0 6 -11 10 -24 10 -13 0 -29 7 -36 15 -7
9 -15 13 -18 11 -2 -3 -20 4 -40 14 -32 18 -38 18 -53 4 -10 -9 -18 -11 -20
-5 -5 14 -68 21 -95 11z m-24 -165 c0 -8 -4 -15 -10 -15 -5 0 -7 7 -4 15 4 8
8 15 10 15 2 0 4 -7 4 -15z m-15 -35 c3 -5 1 -10 -4 -10 -6 0 -11 5 -11 10 0
6 2 10 4 10 3 0 8 -4 11 -10z m-19 -36 c-3 -9 -6 -18 -6 -20 0 -3 -4 -3 -10 1
-11 7 -2 35 12 35 6 0 7 -7 4 -16z m224 -34 c0 -57 -85 -201 -136 -228 -33
-17 -30 -6 14 70 104 182 122 205 122 158z m-368 -22 c-7 -7 -12 -20 -12 -30
0 -10 -4 -18 -9 -18 -5 0 -4 18 1 41 8 28 14 37 21 30 8 -8 7 -15 -1 -23z
m171 -10 c-10 -18 -19 -35 -20 -37 -2 -2 -5 -2 -8 1 -5 5 8 34 29 66 17 28 17
2 -1 -30z m-40 0 c-6 -7 -13 -25 -17 -40 -3 -16 -11 -28 -16 -28 -12 0 -13 14
-3 24 4 4 8 13 9 19 3 33 17 58 27 48 7 -7 7 -14 0 -23z m-163 -115 c-12 -32
-16 -54 -10 -58 12 -7 13 -45 2 -45 -31 0 -30 68 1 142 21 49 27 13 7 -39z
m162 7 c-8 -48 -28 -64 -35 -28 -3 18 -5 16 -6 -9 0 -17 -4 -38 -7 -46 -4 -11
1 -13 20 -10 16 3 26 1 26 -6 0 -6 -9 -11 -20 -11 -21 0 -27 -14 -11 -25 6 -3
4 -26 -5 -57 -9 -28 -14 -64 -12 -80 6 -36 -10 -37 -18 0 -3 15 -7 32 -9 38
-2 6 2 17 8 23 9 9 9 14 -2 20 -8 6 -10 14 -5 22 5 8 9 40 10 72 1 34 9 68 19
83 8 13 13 29 9 35 -4 7 1 9 15 4 16 -5 21 -2 21 11 0 10 2 15 5 13 2 -3 1
-25 -3 -49z m-145 -52 c-3 -8 -6 -5 -6 6 -1 11 2 17 5 13 3 -3 4 -12 1 -19z
m-43 -64 c12 -5 15 -15 10 -48 -7 -44 -24 -73 -24 -40 0 11 -5 25 -11 31 -7 7
-6 15 5 25 11 11 12 18 3 27 -12 12 -7 14 17 5z m-8 -151 c-11 -11 -17 4 -9
23 7 18 8 18 11 1 2 -10 1 -21 -2 -24z m434 17 c0 -6 -26 -38 -57 -71 -32 -32
-61 -66 -66 -74 -4 -8 -33 -34 -64 -56 -64 -48 -77 -42 -68 30 3 24 5 53 5 63
0 15 6 19 28 17 26 -3 150 52 162 71 4 7 39 25 58 29 1 1 2 -4 2 -9z m-293
-66 c-3 -3 -12 -4 -19 -1 -8 3 -5 6 6 6 11 1 17 -2 13 -5z"/>
<path d="M13560 4461 c-19 -11 -38 -17 -42 -14 -5 2 -13 -7 -20 -21 -6 -14
-15 -26 -20 -26 -5 0 -30 -21 -54 -47 -49 -53 -132 -212 -159 -306 -19 -68
-30 -233 -15 -242 6 -3 10 -17 10 -30 0 -33 29 -116 47 -136 7 -9 42 -27 76
-39 34 -13 71 -29 82 -36 11 -8 36 -14 56 -14 40 0 129 33 129 48 0 5 19 24
42 42 l41 34 -6 -95 c-7 -116 5 -164 43 -164 14 0 32 -4 40 -10 38 -25 65 -35
96 -35 32 0 34 2 35 38 1 20 3 46 5 57 2 11 5 38 8 60 2 22 9 72 15 110 11 67
20 110 56 275 9 41 19 95 21 120 3 24 11 51 18 60 7 8 16 24 18 35 3 11 9 28
13 38 5 13 2 17 -13 17 -12 0 -24 5 -27 10 -3 6 -19 10 -35 10 -15 0 -30 7
-34 15 -4 10 -14 13 -36 9 -19 -4 -30 -2 -30 5 0 6 6 11 14 11 8 0 16 5 18 11
3 9 10 9 27 -1 29 -15 41 -1 41 46 0 42 -41 75 -111 89 -26 5 -172 67 -194 82
-28 19 -114 16 -155 -6z m300 -203 c0 -25 -40 -88 -56 -88 -6 0 -27 -26 -47
-57 -19 -32 -47 -74 -62 -93 -14 -19 -42 -60 -62 -90 -44 -67 -95 -130 -105
-130 -22 0 12 115 59 205 18 33 38 71 45 85 7 14 18 29 25 33 7 4 13 15 13 23
0 8 7 17 15 20 8 4 15 12 15 18 0 17 54 67 88 82 45 20 72 17 72 -8z m-281
-50 c-12 -29 -25 -64 -30 -77 -5 -13 -12 -21 -16 -18 -3 3 -2 14 2 24 5 10 9
21 10 26 2 4 4 10 5 15 1 4 2 10 1 15 0 4 4 7 9 7 6 0 10 14 10 30 0 20 5 30
15 30 12 0 11 -9 -6 -52z m-185 -113 c-4 -8 -10 -15 -15 -15 -4 0 -6 7 -3 15
4 8 10 15 15 15 4 0 6 -7 3 -15z m142 -26 c-3 -17 -6 -42 -6 -56 0 -13 -4 -22
-9 -19 -5 4 -8 14 -6 24 2 9 4 32 4 50 1 17 6 32 12 32 8 0 9 -11 5 -31z
m-175 -40 c-5 -13 -10 -19 -10 -12 -1 15 10 45 15 40 3 -2 0 -15 -5 -28z m519
-25 c0 -8 -4 -12 -10 -9 -5 3 -10 10 -10 16 0 5 5 9 10 9 6 0 10 -7 10 -16z
m-371 -66 c-5 -9 -9 -36 -9 -60 -1 -42 -1 -42 -15 -18 -7 14 -10 27 -6 30 4 3
8 16 9 30 0 14 4 36 8 50 6 23 7 24 14 5 4 -11 4 -28 -1 -37z m-12 -148 c2
-22 -12 -27 -23 -9 -5 9 5 22 21 29 1 0 1 -9 2 -20z m343 -20 c0 -5 -5 -10
-10 -10 -6 0 -8 -15 -4 -40 5 -32 3 -40 -8 -40 -10 0 -14 8 -13 23 1 12 3 34
4 50 1 17 7 27 16 27 8 0 15 -4 15 -10z m-20 -132 c0 -34 -15 -67 -25 -57 -8
9 6 89 16 89 5 0 9 -15 9 -32z"/>
<path d="M5550 4259 c0 -5 5 -7 10 -4 6 3 10 8 10 11 0 2 -4 4 -10 4 -5 0 -10
-5 -10 -11z"/>
</g>
</svg>
